RobotoSerifMicroWide-Regular03ip.ufo
<glyph name="exclam" format="2">
  <advance width="352"/>
  <unicode hex="0021"/>
  <outline>
    <contour>
      <point x="237" y="755" type="line"/>
      <point x="237" y="573"/>
      <point x="214" y="476"/>
      <point x="214" y="258" type="curve"/>
      <point x="138" y="258" type="line"/>
      <point x="138" y="476"/>
      <point x="115" y="572"/>
      <point x="115" y="755" type="curve"/>
    </contour>
    <component base="period" xOffset="4"/>
  </outline>
</glyph>
<glyph name="three" format="2">
  <advance width="692"/>
  <unicode hex="0033"/>
  <outline>
    <contour>
      <point x="346" y="-26" type="curve" smooth="yes"/>
      <point x="459" y="-26"/>
      <point x="533" y="22"/>
      <point x="533" y="125" type="curve" smooth="yes"/>
      <point x="533" y="219"/>
      <point x="476" y="266"/>
      <point x="307" y="266" type="curve" smooth="yes"/>
      <point x="202" y="266" type="line"/>
      <point x="202" y="328" type="line"/>
      <point x="292" y="328" type="line" smooth="yes"/>
      <point x="429" y="328"/>
      <point x="505" y="367"/>
      <point x="505" y="469" type="curve" smooth="yes"/>
      <point x="505.0" y="552.0"/>
      <point x="445" y="585"/>
      <point x="347" y="585" type="curve" smooth="yes"/>
      <point x="267.0" y="585.0"/>
      <point x="200" y="564"/>
      <point x="150" y="523" type="curve"/>
      <point x="143" y="539"/>
      <point x="162" y="568"/>
      <point x="195" y="572" type="curve"/>
      <point x="195" y="452" type="line"/>
      <point x="105" y="452" type="line"/>
      <point x="105" y="580" type="line"/>
      <point x="160" y="615"/>
      <point x="247" y="649.0"/>
      <point x="363" y="649.0" type="curve" smooth="yes"/>
      <point x="507.0" y="649.0"/>
      <point x="597" y="593"/>
      <point x="597" y="482" type="curve" smooth="yes"/>
      <point x="597.0" y="363.0"/>
      <point x="491" y="293"/>
      <point x="339" y="293" type="curve"/>
      <point x="340" y="306" type="line"/>
      <point x="554" y="306"/>
      <point x="627" y="233"/>
      <point x="627" y="120" type="curve" smooth="yes"/>
      <point x="627" y="-15"/>
      <point x="508" y="-90.0"/>
      <point x="342" y="-90.0" type="curve" smooth="yes"/>
      <point x="179.0" y="-90"/>
      <point x="94" y="-28.0"/>
      <point x="48" y="70.0" type="curve"/>
      <point x="118" y="107" type="line"/>
      <point x="161" y="23"/>
      <point x="230" y="-26"/>
    </contour>
  </outline>
</glyph>
<glyph name="T" format="2">
  <advance width="827"/>
  <unicode hex="0054"/>
  <anchor x="419.0627802690583" y="741" name="top"/>
  <anchor x="419.0627802690583" y="0" name="bottom"/>
  <outline>
    <contour>
      <point x="368.0" y="98" type="line" smooth="yes"/>
      <point x="368.0" y="69.0"/>
      <point x="332.0" y="62"/>
      <point x="283.0" y="62" type="curve" smooth="yes"/>
      <point x="236.0" y="62" type="line"/>
      <point x="236.0" y="0" type="line"/>
      <point x="593.0" y="0" type="line"/>
      <point x="593.0" y="62" type="line"/>
      <point x="544.0" y="62" type="line" smooth="yes"/>
      <point x="495.0" y="62"/>
      <point x="459.0" y="69.0"/>
      <point x="459.0" y="98" type="curve" smooth="yes"/>
      <point x="459.0" y="650" type="line"/>
      <point x="575.0" y="650.0" type="line" smooth="yes"/>
      <point x="661.0" y="650"/>
      <point x="690.0" y="641"/>
      <point x="695.0" y="605.0" type="curve" smooth="yes"/>
      <point x="713.0" y="471.0" type="line"/>
      <point x="777.0" y="471.0" type="line"/>
      <point x="777.0" y="710.0" type="line"/>
      <point x="50.0" y="710.0" type="line"/>
      <point x="50.0" y="471.0" type="line"/>
      <point x="114.0" y="471.0" type="line"/>
      <point x="132.0" y="605.0" type="line" smooth="yes"/>
      <point x="137.0" y="641.0"/>
      <point x="166.0" y="650"/>
      <point x="252.0" y="650.0" type="curve" smooth="yes"/>
      <point x="368.0" y="650" type="line"/>
    </contour>
  </outline>
</glyph>
<glyph name="underscore" format="2">
  <advance width="632"/>
  <unicode hex="005F"/>
  <outline>
    <contour>
      <point x="20" y="-96" type="line"/>
      <point x="20" y="-154" type="line"/>
      <point x="612" y="-154" type="line"/>
      <point x="612" y="-96" type="line"/>
    </contour>
  </outline>
</glyph>
<glyph name="acute" format="2">
  <advance width="530"/>
  <unicode hex="00B4"/>
  <guideline x="227" y="634" angle="90" identifier="sa2fOKq7dN"/>
  <anchor x="227" y="565" name="_top"/>
  <outline>
    <contour>
      <point x="282" y="807" type="curve" smooth="yes"/>
      <point x="197" y="686" type="line"/>
      <point x="197" y="661" type="line"/>
      <point x="227" y="661" type="line"/>
      <point x="368" y="752" type="line" smooth="yes"/>
      <point x="403" y="775"/>
      <point x="416" y="792"/>
      <point x="416" y="819" type="curve" smooth="yes"/>
      <point x="416" y="845"/>
      <point x="395" y="869"/>
      <point x="360" y="869" type="curve" smooth="yes"/>
      <point x="322" y="869"/>
      <point x="304" y="839"/>
    </contour>
  </outline>
</glyph>
<glyph name="idieresis" format="2">
  <advance width="368"/>
  <unicode hex="00EF"/>
  <outline>
    <contour>
      <point x="55" y="669" type="curve" smooth="yes"/>
      <point x="99" y="669"/>
      <point x="125" y="696"/>
      <point x="125" y="742" type="curve" smooth="yes"/>
      <point x="125" y="786"/>
      <point x="99" y="814"/>
      <point x="55" y="814" type="curve" smooth="yes"/>
      <point x="9" y="814"/>
      <point x="-15" y="786"/>
      <point x="-15" y="742" type="curve" smooth="yes"/>
      <point x="-15" y="696"/>
      <point x="9" y="669"/>
    </contour>
    <contour>
      <point x="304" y="669" type="curve" smooth="yes"/>
      <point x="348" y="669"/>
      <point x="374" y="696"/>
      <point x="374" y="742" type="curve" smooth="yes"/>
      <point x="374" y="786"/>
      <point x="348" y="814"/>
      <point x="304" y="814" type="curve" smooth="yes"/>
      <point x="258" y="814"/>
      <point x="234" y="786"/>
      <point x="234" y="742" type="curve" smooth="yes"/>
      <point x="234" y="696"/>
      <point x="258" y="669"/>
    </contour>
    <component base="dotlessi"/>
  </outline>
</glyph>
<glyph name="imacron" format="2">
  <advance width="368"/>
  <unicode hex="012B"/>
  <outline>
    <contour>
      <point x="2" y="777" type="line"/>
      <point x="2" y="709" type="line"/>
      <point x="342" y="709" type="line"/>
      <point x="342" y="777" type="line"/>
    </contour>
    <component base="dotlessi"/>
  </outline>
</glyph>
<glyph name="Tbar" format="2">
  <advance width="827"/>
  <unicode hex="0166"/>
  <outline>
    <contour>
      <point x="168" y="334" type="line"/>
      <point x="168" y="276" type="line"/>
      <point x="659.5" y="276" type="line"/>
      <point x="659.5" y="334" type="line"/>
    </contour>
    <component base="T"/>
  </outline>
</glyph>
<glyph name="iinvertedbreve" format="2">
  <advance width="368"/>
  <unicode hex="020B"/>
  <outline>
    <contour>
      <point x="187" y="832" type="curve" smooth="yes"/>
      <point x="279" y="832"/>
      <point x="351" y="792"/>
      <point x="350" y="666" type="curve"/>
      <point x="280" y="666" type="line"/>
      <point x="278" y="738"/>
      <point x="241" y="761"/>
      <point x="184" y="761" type="curve" smooth="yes"/>
      <point x="127" y="761"/>
      <point x="91" y="738"/>
      <point x="89" y="666" type="curve"/>
      <point x="23" y="666" type="line"/>
      <point x="23" y="792"/>
      <point x="95" y="832"/>
    </contour>
    <component base="dotlessi"/>
  </outline>
</glyph>
<glyph name="idieresisacute" format="2">
  <advance width="368"/>
  <unicode hex="1E2F"/>
  <outline>
    <contour>
      <point x="55" y="669" type="curve" smooth="yes"/>
      <point x="99" y="669"/>
      <point x="125" y="696"/>
      <point x="125" y="742" type="curve" smooth="yes"/>
      <point x="125" y="786"/>
      <point x="99" y="814"/>
      <point x="55" y="814" type="curve" smooth="yes"/>
      <point x="9" y="814"/>
      <point x="-15" y="786"/>
      <point x="-15" y="742" type="curve" smooth="yes"/>
      <point x="-15" y="696"/>
      <point x="9" y="669"/>
    </contour>
    <contour>
      <point x="304" y="669" type="curve" smooth="yes"/>
      <point x="348" y="669"/>
      <point x="374" y="696"/>
      <point x="374" y="742" type="curve" smooth="yes"/>
      <point x="374" y="786"/>
      <point x="348" y="814"/>
      <point x="304" y="814" type="curve" smooth="yes"/>
      <point x="258" y="814"/>
      <point x="234" y="786"/>
      <point x="234" y="742" type="curve" smooth="yes"/>
      <point x="234" y="696"/>
      <point x="258" y="669"/>
    </contour>
    <contour>
      <point x="214" y="1009" type="curve" smooth="yes"/>
      <point x="148" y="888" type="line"/>
      <point x="148" y="863" type="line"/>
      <point x="179" y="863" type="line"/>
      <point x="300" y="954" type="line" smooth="yes"/>
      <point x="328" y="974"/>
      <point x="346" y="998"/>
      <point x="346" y="1023" type="curve" smooth="yes"/>
      <point x="346" y="1049"/>
      <point x="326" y="1071"/>
      <point x="292" y="1071" type="curve" smooth="yes"/>
      <point x="254" y="1071"/>
      <point x="232" y="1044"/>
    </contour>
    <component base="dotlessi"/>
  </outline>
</glyph>
<glyph name="five.linprop" format="2">
  <advance width="629"/>
  <outline>
    <contour>
      <point x="300" y="-11" type="curve" smooth="yes"/>
      <point x="154" y="-11"/>
      <point x="81" y="49"/>
      <point x="40" y="131" type="curve"/>
      <point x="102" y="170" type="line"/>
      <point x="134" y="110"/>
      <point x="186" y="53"/>
      <point x="305" y="53" type="curve" smooth="yes"/>
      <point x="415" y="53"/>
      <point x="486" y="104"/>
      <point x="486" y="240" type="curve" smooth="yes"/>
      <point x="486" y="369"/>
      <point x="419" y="409"/>
      <point x="326" y="409" type="curve" smooth="yes"/>
      <point x="250" y="409"/>
      <point x="204" y="381"/>
      <point x="166" y="324" type="curve"/>
      <point x="105" y="324" type="line"/>
      <point x="105" y="710" type="line"/>
      <point x="534" y="710" type="line"/>
      <point x="519" y="636" type="line"/>
      <point x="144" y="636" type="line"/>
      <point x="170" y="690" type="line"/>
      <point x="170" y="357" type="line"/>
      <point x="166" y="346"/>
      <point x="151" y="335"/>
      <point x="153" y="356" type="curve"/>
      <point x="189" y="428"/>
      <point x="256" y="467"/>
      <point x="345" y="467" type="curve" smooth="yes"/>
      <point x="493" y="467"/>
      <point x="579" y="383"/>
      <point x="579" y="240" type="curve" smooth="yes"/>
      <point x="579" y="75"/>
      <point x="466" y="-11"/>
    </contour>
  </outline>
</glyph>
<glyph name="five.lintab" format="2">
  <advance width="680"/>
  <outline>
    <contour>
      <point x="278" y="-11" type="curve" smooth="yes"/>
      <point x="142" y="-11"/>
      <point x="69" y="49"/>
      <point x="28" y="131" type="curve"/>
      <point x="90" y="170" type="line"/>
      <point x="122" y="110"/>
      <point x="174" y="53"/>
      <point x="283" y="53" type="curve" smooth="yes"/>
      <point x="383" y="53"/>
      <point x="451" y="104"/>
      <point x="451" y="240" type="curve" smooth="yes"/>
      <point x="451" y="369"/>
      <point x="387" y="409"/>
      <point x="304" y="409" type="curve" smooth="yes"/>
      <point x="236" y="409"/>
      <point x="192" y="381"/>
      <point x="154" y="324" type="curve"/>
      <point x="93" y="324" type="line"/>
      <point x="93" y="710" type="line"/>
      <point x="499" y="710" type="line"/>
      <point x="484" y="636" type="line"/>
      <point x="132" y="636" type="line"/>
      <point x="158" y="690" type="line"/>
      <point x="158" y="357" type="line"/>
      <point x="154" y="346"/>
      <point x="139" y="335"/>
      <point x="141" y="356" type="curve"/>
      <point x="177" y="428"/>
      <point x="242" y="467"/>
      <point x="323" y="467" type="curve" smooth="yes"/>
      <point x="461" y="467"/>
      <point x="544" y="383"/>
      <point x="544" y="240" type="curve" smooth="yes"/>
      <point x="544" y="75"/>
      <point x="434" y="-11"/>
    </contour>
  </outline>
</glyph>
<glyph name="five.oldprop" format="2">
  <advance width="692"/>
  <outline>
    <contour>
      <point x="332" y="-90.0" type="curve" smooth="yes"/>
      <point x="187" y="-90"/>
      <point x="100" y="-36.0"/>
      <point x="54" y="52.0" type="curve"/>
      <point x="122" y="95" type="line"/>
      <point x="171" y="17"/>
      <point x="228" y="-26"/>
      <point x="335" y="-26" type="curve" smooth="yes"/>
      <point x="463" y="-26"/>
      <point x="530" y="45"/>
      <point x="530" y="173" type="curve" smooth="yes"/>
      <point x="530.0" y="291.0"/>
      <point x="471" y="337"/>
      <point x="367" y="338" type="curve" smooth="yes"/>
      <point x="293" y="338"/>
      <point x="232" y="313"/>
      <point x="187" y="251" type="curve"/>
      <point x="126" y="251" type="line"/>
      <point x="126" y="639.0" type="line"/>
      <point x="573" y="639.0" type="line"/>
      <point x="558" y="565" type="line"/>
      <point x="166" y="565" type="line"/>
      <point x="191" y="619.0" type="line"/>
      <point x="191" y="286" type="line"/>
      <point x="189" y="277"/>
      <point x="171" y="280"/>
      <point x="169" y="287" type="curve"/>
      <point x="214" y="356"/>
      <point x="294" y="396.0"/>
      <point x="393" y="396.0" type="curve" smooth="yes"/>
      <point x="541.0" y="396.0"/>
      <point x="624" y="316"/>
      <point x="624" y="182" type="curve" smooth="yes"/>
      <point x="624.0" y="1.0"/>
      <point x="508" y="-90"/>
    </contour>
  </outline>
</glyph>
<glyph name="four.oldprop" format="2">
  <advance width="714"/>
  <outline>
    <contour>
      <point x="44" y="98" type="line"/>
      <point x="682" y="98" type="line"/>
      <point x="682" y="172" type="line"/>
      <point x="79" y="172" type="line"/>
      <point x="95" y="133" type="line"/>
      <point x="478" y="614" type="line"/>
      <point x="487" y="639.0" type="line"/>
      <point x="417" y="639.0" type="line"/>
      <point x="44" y="175" type="line"/>
    </contour>
    <contour>
      <point x="551" y="-83.0" type="line"/>
      <point x="551" y="639.0" type="line"/>
      <point x="456" y="639.0" type="line"/>
      <point x="464" y="627.0" type="line"/>
      <point x="464" y="-83.0" type="line"/>
    </contour>
  </outline>
</glyph>
<glyph name="guarani.proportional" format="2">
  <advance width="823"/>
  <outline>
    <contour>
      <point x="383" y="790" type="line"/>
      <point x="383" y="672" type="line"/>
      <point x="392" y="662" type="line"/>
      <point x="392" y="48" type="line"/>
      <point x="383" y="37" type="line"/>
      <point x="383" y="-120" type="line"/>
      <point x="465" y="-120" type="line"/>
      <point x="465" y="38" type="line"/>
      <point x="457" y="48" type="line"/>
      <point x="457" y="658" type="line"/>
      <point x="465" y="676" type="line"/>
      <point x="465" y="790" type="line"/>
    </contour>
    <contour>
      <point x="441" y="10" type="curve" smooth="yes"/>
      <point x="556" y="10"/>
      <point x="681" y="50"/>
      <point x="723" y="82" type="curve"/>
      <point x="723" y="264" type="line" smooth="yes"/>
      <point x="723" y="293"/>
      <point x="746" y="300"/>
      <point x="776" y="300" type="curve" smooth="yes"/>
      <point x="781" y="300" type="line"/>
      <point x="781" y="358" type="line"/>
      <point x="576" y="358" type="line"/>
      <point x="576" y="300" type="line"/>
      <point x="586" y="300" type="line" smooth="yes"/>
      <point x="616" y="300"/>
      <point x="640" y="293"/>
      <point x="640" y="264" type="curve" smooth="yes"/>
      <point x="640" y="105" type="line"/>
      <point x="617" y="93"/>
      <point x="539" y="65"/>
      <point x="445" y="65" type="curve" smooth="yes"/>
      <point x="258" y="65"/>
      <point x="157" y="155"/>
      <point x="157" y="355" type="curve" smooth="yes"/>
      <point x="157" y="550"/>
      <point x="247" y="645"/>
      <point x="453" y="645" type="curve" smooth="yes"/>
      <point x="523" y="645"/>
      <point x="643" y="634"/>
      <point x="697" y="587" type="curve"/>
      <point x="706" y="607"/>
      <point x="666" y="639"/>
      <point x="637" y="656" type="curve"/>
      <point x="637" y="516" type="line"/>
      <point x="727" y="516" type="line"/>
      <point x="727" y="650" type="line"/>
      <point x="671" y="681"/>
      <point x="559" y="700"/>
      <point x="453" y="700" type="curve" smooth="yes"/>
      <point x="212" y="700"/>
      <point x="64" y="577"/>
      <point x="64" y="355" type="curve" smooth="yes"/>
      <point x="64" y="129"/>
      <point x="212" y="10"/>
    </contour>
  </outline>
</glyph>
<glyph name="heartsuitwhite" format="2">
  <advance width="959"/>
  <outline>
    <contour>
      <point x="475" y="462" type="curve"/>
      <point x="485" y="462" type="line"/>
      <point x="519" y="542"/>
      <point x="586" y="643"/>
      <point x="683" y="643" type="curve" smooth="yes"/>
      <point x="763" y="643"/>
      <point x="808" y="596"/>
      <point x="808" y="529" type="curve" smooth="yes"/>
      <point x="808" y="447"/>
      <point x="772" y="391"/>
      <point x="699" y="312" type="curve" smooth="yes"/>
      <point x="484" y="81" type="line"/>
      <point x="475" y="81" type="line"/>
      <point x="261" y="312" type="line" smooth="yes"/>
      <point x="187" y="391"/>
      <point x="151" y="447"/>
      <point x="151" y="529" type="curve" smooth="yes"/>
      <point x="151" y="596"/>
      <point x="196" y="643"/>
      <point x="276" y="643" type="curve" smooth="yes"/>
      <point x="373" y="643"/>
      <point x="441" y="542"/>
    </contour>
    <contour>
      <point x="492" y="-10" type="line"/>
      <point x="753" y="273" type="line" smooth="yes"/>
      <point x="845" y="373"/>
      <point x="885" y="434"/>
      <point x="885" y="525" type="curve" smooth="yes"/>
      <point x="885.0" y="632.0"/>
      <point x="815" y="710"/>
      <point x="692" y="710" type="curve" smooth="yes"/>
      <point x="583" y="710"/>
      <point x="520" y="657"/>
      <point x="480" y="569" type="curve"/>
      <point x="439" y="657"/>
      <point x="375" y="710"/>
      <point x="267" y="710" type="curve" smooth="yes"/>
      <point x="144" y="710"/>
      <point x="74" y="632"/>
      <point x="74" y="525" type="curve" smooth="yes"/>
      <point x="74.0" y="434.0"/>
      <point x="114" y="373"/>
      <point x="206" y="273" type="curve" smooth="yes"/>
      <point x="467" y="-10" type="line"/>
    </contour>
  </outline>
</glyph>
<glyph name="manat.proportional" format="2">
  <advance width="777"/>
  <outline>
    <contour>
      <point x="354" y="760" type="line"/>
      <point x="354" y="124" type="line"/>
      <point x="424" y="124" type="line"/>
      <point x="424" y="760" type="line"/>
    </contour>
    <contour>
      <point x="389" y="555" type="curve" smooth="yes"/>
      <point x="564" y="555"/>
      <point x="609" y="454"/>
      <point x="622" y="0" type="curve"/>
      <point x="717" y="0" type="line"/>
      <point x="706" y="453"/>
      <point x="617" y="609"/>
      <point x="389" y="609" type="curve" smooth="yes"/>
      <point x="161" y="609"/>
      <point x="72" y="453"/>
      <point x="60" y="0" type="curve"/>
      <point x="156" y="0" type="line"/>
      <point x="169" y="454"/>
      <point x="214" y="555"/>
    </contour>
  </outline>
</glyph>
<glyph name="nine.den" format="2">
  <advance width="513"/>
  <outline>
    <contour>
      <point x="116" y="30" type="line"/>
      <point x="284" y="44"/>
      <point x="358" y="96"/>
      <point x="358" y="241" type="curve" smooth="yes"/>
      <point x="358" y="341"/>
      <point x="314" y="370"/>
      <point x="253" y="370" type="curve" smooth="yes"/>
      <point x="195" y="370"/>
      <point x="157" y="341"/>
      <point x="157" y="277" type="curve" smooth="yes"/>
      <point x="157" y="219"/>
      <point x="184" y="192"/>
      <point x="239" y="192" type="curve" smooth="yes"/>
      <point x="301" y="192"/>
      <point x="344" y="230"/>
      <point x="367" y="274" type="curve"/>
      <point x="375" y="237" type="line"/>
      <point x="351" y="190"/>
      <point x="300" y="142"/>
      <point x="208" y="142" type="curve" smooth="yes"/>
      <point x="129.0" y="142.0"/>
      <point x="66" y="183"/>
      <point x="66" y="274" type="curve" smooth="yes"/>
      <point x="66" y="373"/>
      <point x="145" y="420"/>
      <point x="253" y="420" type="curve" smooth="yes"/>
      <point x="364" y="420"/>
      <point x="447" y="372"/>
      <point x="447" y="241" type="curve" smooth="yes"/>
      <point x="447" y="86"/>
      <point x="345" y="-3"/>
      <point x="120" y="-22" type="curve"/>
    </contour>
  </outline>
</glyph>
<glyph name="nine.lintab" format="2">
  <advance width="680"/>
  <outline>
    <contour>
      <point x="121" y="43" type="line"/>
      <point x="343" y="66"/>
      <point x="460" y="163"/>
      <point x="460" y="430" type="curve" smooth="yes"/>
      <point x="460" y="614"/>
      <point x="406" y="671"/>
      <point x="293" y="671" type="curve" smooth="yes"/>
      <point x="186" y="671"/>
      <point x="145" y="596"/>
      <point x="145" y="490" type="curve" smooth="yes"/>
      <point x="145" y="388"/>
      <point x="179" y="325"/>
      <point x="287" y="325" type="curve" smooth="yes"/>
      <point x="379.0" y="325.0"/>
      <point x="433" y="378"/>
      <point x="476" y="471" type="curve"/>
      <point x="486" y="440" type="line"/>
      <point x="457" y="356"/>
      <point x="385" y="267"/>
      <point x="262" y="267" type="curve" smooth="yes"/>
      <point x="127" y="267"/>
      <point x="50" y="346"/>
      <point x="50" y="490" type="curve" smooth="yes"/>
      <point x="50" y="633"/>
      <point x="139" y="735"/>
      <point x="293" y="735" type="curve" smooth="yes"/>
      <point x="454" y="735"/>
      <point x="554" y="649"/>
      <point x="554" y="430" type="curve" smooth="yes"/>
      <point x="554" y="146"/>
      <point x="402" y="13"/>
      <point x="130" y="-15" type="curve"/>
    </contour>
  </outline>
</glyph>
<glyph name="nine.oldprop" format="2">
  <advance width="692"/>
  <outline>
    <contour>
      <point x="117.0" y="-38.0" type="line"/>
      <point x="380.0" y="-15.0"/>
      <point x="527.0" y="56.0"/>
      <point x="527.0" y="344.0" type="curve" smooth="yes"/>
      <point x="527.0" y="519.0"/>
      <point x="455" y="585"/>
      <point x="328.0" y="585.0" type="curve" smooth="yes"/>
      <point x="200.0" y="585.0"/>
      <point x="154.0" y="502.0"/>
      <point x="154.0" y="403.0" type="curve" smooth="yes"/>
      <point x="154.0" y="300.0"/>
      <point x="198.0" y="239.0"/>
      <point x="312.0" y="239.0" type="curve" smooth="yes"/>
      <point x="411.0" y="239.0"/>
      <point x="476.0" y="267.0"/>
      <point x="554.0" y="398.0" type="curve"/>
      <point x="555.0" y="356.0" type="line"/>
      <point x="494.0" y="234.0"/>
      <point x="408" y="181"/>
      <point x="296.0" y="181.0" type="curve" smooth="yes"/>
      <point x="141.0" y="181"/>
      <point x="60.0" y="259.0"/>
      <point x="60.0" y="403.0" type="curve" smooth="yes"/>
      <point x="60" y="542.0"/>
      <point x="155.0" y="649.0"/>
      <point x="330.0" y="649.0" type="curve" smooth="yes"/>
      <point x="517.0" y="649.0"/>
      <point x="618.0" y="553.0"/>
      <point x="619.0" y="344.0" type="curve" smooth="yes"/>
      <point x="619.0" y="45.0"/>
      <point x="440.0" y="-74.0"/>
      <point x="124.0" y="-101.0" type="curve"/>
    </contour>
  </outline>
</glyph>
<glyph name="one.linprop" format="2">
  <advance width="584"/>
  <outline>
    <contour>
      <point x="367" y="98" type="curve" smooth="yes"/>
      <point x="367" y="710.0" type="line"/>
      <point x="304" y="710.0" type="line"/>
      <point x="266" y="649.0"/>
      <point x="200" y="633.0"/>
      <point x="88" y="630.0" type="curve"/>
      <point x="88" y="558" type="line"/>
      <point x="191" y="558"/>
      <point x="285" y="592"/>
      <point x="303" y="656" type="curve"/>
      <point x="296" y="659"/>
      <point x="290" y="642"/>
      <point x="279" y="642" type="curve"/>
      <point x="279" y="98" type="line" smooth="yes"/>
      <point x="279" y="69"/>
      <point x="243" y="62"/>
      <point x="193" y="62" type="curve" smooth="yes"/>
      <point x="106" y="62" type="line"/>
      <point x="106" y="0.0" type="line"/>
      <point x="537" y="0.0" type="line"/>
      <point x="537" y="62" type="line"/>
      <point x="452.0" y="62" type="line" smooth="yes"/>
      <point x="403" y="62"/>
      <point x="367" y="69"/>
    </contour>
  </outline>
</glyph>
<glyph name="one.lintab" format="2">
  <advance width="680"/>
  <outline>
    <contour>
      <point x="370" y="98" type="curve" smooth="yes"/>
      <point x="370" y="710.0" type="line"/>
      <point x="307" y="710.0" type="line"/>
      <point x="269" y="649.0"/>
      <point x="203" y="633.0"/>
      <point x="86" y="630.0" type="curve"/>
      <point x="86" y="558" type="line"/>
      <point x="194" y="558"/>
      <point x="288" y="592"/>
      <point x="306" y="656" type="curve"/>
      <point x="299" y="659"/>
      <point x="293" y="642"/>
      <point x="282" y="642" type="curve"/>
      <point x="282" y="98" type="line" smooth="yes"/>
      <point x="282" y="69"/>
      <point x="246" y="62"/>
      <point x="196" y="62" type="curve" smooth="yes"/>
      <point x="104" y="62" type="line"/>
      <point x="104" y="0.0" type="line"/>
      <point x="542" y="0.0" type="line"/>
      <point x="542" y="62" type="line"/>
      <point x="455.0" y="62" type="line" smooth="yes"/>
      <point x="406" y="62"/>
      <point x="370" y="69"/>
    </contour>
  </outline>
</glyph>
<glyph name="one.midprop" format="2">
  <advance width="692"/>
  <outline>
    <contour>
      <point x="426" y="86" type="curve" smooth="yes"/>
      <point x="426" y="668.0" type="line"/>
      <point x="363" y="668.0" type="line"/>
      <point x="325" y="607.0"/>
      <point x="259" y="591.0"/>
      <point x="146" y="588.0" type="curve"/>
      <point x="146" y="516" type="line"/>
      <point x="250" y="516"/>
      <point x="344" y="550"/>
      <point x="362" y="614" type="curve"/>
      <point x="355" y="617"/>
      <point x="349" y="600"/>
      <point x="338" y="600" type="curve"/>
      <point x="338" y="86" type="line" smooth="yes"/>
      <point x="338" y="57"/>
      <point x="302" y="50"/>
      <point x="252" y="50" type="curve" smooth="yes"/>
      <point x="164" y="50" type="line"/>
      <point x="164" y="0.0" type="line"/>
      <point x="595" y="0.0" type="line"/>
      <point x="595" y="50" type="line"/>
      <point x="511.0" y="50" type="line" smooth="yes"/>
      <point x="462" y="50"/>
      <point x="426" y="57"/>
    </contour>
  </outline>
</glyph>
<glyph name="ringhalfright" format="2">
  <advance width="530"/>
  <anchor x="265.0" y="566" name="_top"/>
  <outline>
    <contour>
      <point x="254" y="867" type="line"/>
      <point x="348" y="867"/>
      <point x="404" y="824"/>
      <point x="404" y="750" type="curve" smooth="yes"/>
      <point x="404" y="675"/>
      <point x="348" y="632"/>
      <point x="254" y="632" type="curve"/>
      <point x="254" y="680" type="line"/>
      <point x="306" y="680"/>
      <point x="336" y="702"/>
      <point x="336" y="750" type="curve" smooth="yes"/>
      <point x="336" y="797"/>
      <point x="306" y="819"/>
      <point x="254" y="819" type="curve"/>
    </contour>
  </outline>
</glyph>
<glyph name="ruble.proportional" format="2">
  <advance width="687"/>
  <outline>
    <contour>
      <point x="55" y="403" type="line"/>
      <point x="388" y="403" type="line" smooth="yes"/>
      <point x="497" y="403"/>
      <point x="541" y="447"/>
      <point x="541" y="531" type="curve" smooth="yes"/>
      <point x="541" y="613"/>
      <point x="497" y="648"/>
      <point x="394" y="648" type="curve" smooth="yes"/>
      <point x="262" y="648" type="line"/>
      <point x="262" y="72" type="line" smooth="yes"/>
      <point x="262" y="65"/>
      <point x="302" y="62"/>
      <point x="339" y="62" type="curve" smooth="yes"/>
      <point x="367" y="62" type="line"/>
      <point x="367" y="0" type="line"/>
      <point x="74" y="0" type="line"/>
      <point x="74" y="62" type="line"/>
      <point x="100" y="62" type="line"/>
      <point x="142" y="62"/>
      <point x="171" y="69"/>
      <point x="171" y="98" type="curve" smooth="yes"/>
      <point x="171" y="612" type="line" smooth="yes"/>
      <point x="171" y="641"/>
      <point x="142" y="648"/>
      <point x="100" y="648" type="curve"/>
      <point x="74" y="648" type="line"/>
      <point x="74" y="710" type="line"/>
      <point x="386" y="710" type="line" smooth="yes"/>
      <point x="557" y="710"/>
      <point x="631" y="645"/>
      <point x="631" y="532" type="curve" smooth="yes"/>
      <point x="631" y="420"/>
      <point x="552" y="351"/>
      <point x="381" y="351" type="curve" smooth="yes"/>
      <point x="55" y="351" type="line"/>
    </contour>
    <contour>
      <point x="500" y="179" type="line"/>
      <point x="55" y="179" type="line"/>
      <point x="55" y="231" type="line"/>
      <point x="500" y="231" type="line"/>
    </contour>
  </outline>
</glyph>
<glyph name="seven.den" format="2">
  <advance width="533"/>
  <outline>
    <contour>
      <point x="228" y="349" type="line" smooth="yes"/>
      <point x="171" y="349"/>
      <point x="146" y="344"/>
      <point x="144" y="320" type="curve" smooth="yes"/>
      <point x="140" y="263" type="line"/>
      <point x="91" y="263" type="line"/>
      <point x="91" y="415" type="line"/>
      <point x="446" y="415" type="line"/>
      <point x="446" y="351" type="line"/>
      <point x="339" y="262"/>
      <point x="297" y="202"/>
      <point x="293" y="0" type="curve"/>
      <point x="203" y="0" type="line"/>
      <point x="211" y="179"/>
      <point x="327" y="330"/>
      <point x="414" y="370" type="curve"/>
      <point x="415" y="349" type="line"/>
    </contour>
  </outline>
</glyph>
<glyph name="six.linprop" format="2">
  <advance width="661"/>
  <outline>
    <contour>
      <point x="522" y="682" type="line"/>
      <point x="296" y="659"/>
      <point x="164" y="560"/>
      <point x="164" y="295" type="curve" smooth="yes"/>
      <point x="164" y="111"/>
      <point x="230" y="54"/>
      <point x="349" y="54" type="curve" smooth="yes"/>
      <point x="463.0" y="54.0"/>
      <point x="514" y="127"/>
      <point x="514" y="240" type="curve" smooth="yes"/>
      <point x="514" y="346"/>
      <point x="469" y="410"/>
      <point x="355" y="410" type="curve" smooth="yes"/>
      <point x="258" y="410"/>
      <point x="194" y="359"/>
      <point x="149" y="264" type="curve"/>
      <point x="139" y="295" type="line"/>
      <point x="171" y="384"/>
      <point x="252" y="468"/>
      <point x="381" y="468" type="curve" smooth="yes"/>
      <point x="521" y="468"/>
      <point x="610" y="384"/>
      <point x="610" y="240" type="curve" smooth="yes"/>
      <point x="610" y="97"/>
      <point x="510" y="-10"/>
      <point x="349" y="-10" type="curve" smooth="yes"/>
      <point x="182.0" y="-10"/>
      <point x="71" y="75"/>
      <point x="71" y="295" type="curve" smooth="yes"/>
      <point x="71" y="576"/>
      <point x="237" y="712"/>
      <point x="514" y="740" type="curve"/>
    </contour>
  </outline>
</glyph>
<glyph name="slash.uc" format="2">
  <advance width="566"/>
  <outline>
    <contour>
      <point x="476" y="760" type="line"/>
      <point x="5" y="-60" type="line"/>
      <point x="90" y="-60" type="line"/>
      <point x="561" y="760" type="line"/>
    </contour>
  </outline>
</glyph>
<glyph name="three.den" format="2">
  <advance width="522"/>
  <outline>
    <contour>
      <point x="258" y="44" type="curve" smooth="yes"/>
      <point x="332" y="44"/>
      <point x="364" y="75"/>
      <point x="364" y="123" type="curve" smooth="yes"/>
      <point x="364" y="167"/>
      <point x="335" y="192"/>
      <point x="238" y="192" type="curve" smooth="yes"/>
      <point x="200" y="192" type="line"/>
      <point x="200" y="241" type="line"/>
      <point x="229" y="241" type="line" smooth="yes"/>
      <point x="310" y="241"/>
      <point x="352" y="259"/>
      <point x="352" y="313" type="curve" smooth="yes"/>
      <point x="352" y="358"/>
      <point x="312" y="370"/>
      <point x="266" y="370" type="curve" smooth="yes"/>
      <point x="219" y="370"/>
      <point x="176" y="359"/>
      <point x="150" y="346" type="curve"/>
      <point x="163" y="356"/>
      <point x="164" y="374"/>
      <point x="182" y="377" type="curve"/>
      <point x="182" y="293" type="line"/>
      <point x="112" y="293" type="line"/>
      <point x="112" y="389" type="line"/>
      <point x="135" y="399"/>
      <point x="204" y="420"/>
      <point x="276" y="420" type="curve" smooth="yes"/>
      <point x="374" y="420"/>
      <point x="439" y="391"/>
      <point x="439" y="323" type="curve" smooth="yes"/>
      <point x="439" y="247"/>
      <point x="360" y="215"/>
      <point x="247" y="215" type="curve"/>
      <point x="260" y="224" type="line"/>
      <point x="408" y="223"/>
      <point x="456" y="183"/>
      <point x="456" y="117" type="curve" smooth="yes"/>
      <point x="456" y="35"/>
      <point x="371" y="-6"/>
      <point x="267" y="-6" type="curve" smooth="yes"/>
      <point x="147" y="-6"/>
      <point x="92" y="46"/>
      <point x="66" y="107" type="curve"/>
      <point x="118" y="135" type="line"/>
      <point x="140" y="85"/>
      <point x="183" y="44"/>
    </contour>
  </outline>
</glyph>
<glyph name="three.linprop" format="2">
  <advance width="662"/>
  <outline>
    <contour>
      <point x="325" y="387" type="line"/>
      <point x="524" y="385"/>
      <point x="603" y="317"/>
      <point x="603" y="206" type="curve" smooth="yes"/>
      <point x="603" y="65"/>
      <point x="487" y="-11"/>
      <point x="331" y="-11" type="curve" smooth="yes"/>
      <point x="182" y="-11"/>
      <point x="101" y="54"/>
      <point x="55" y="153" type="curve"/>
      <point x="121" y="187" type="line"/>
      <point x="163" y="108"/>
      <point x="224" y="54"/>
      <point x="329" y="54" type="curve" smooth="yes"/>
      <point x="434" y="54"/>
      <point x="509" y="102"/>
      <point x="509" y="204" type="curve" smooth="yes"/>
      <point x="509" y="301"/>
      <point x="453" y="349"/>
      <point x="320" y="349" type="curve" smooth="yes"/>
      <point x="201" y="349" type="line"/>
      <point x="201" y="411" type="line"/>
      <point x="307" y="411" type="line" smooth="yes"/>
      <point x="412" y="411"/>
      <point x="487" y="452"/>
      <point x="487" y="552" type="curve" smooth="yes"/>
      <point x="487" y="639"/>
      <point x="423" y="671"/>
      <point x="335" y="671" type="curve" smooth="yes"/>
      <point x="244" y="671"/>
      <point x="187" y="642"/>
      <point x="159" y="625" type="curve"/>
      <point x="157" y="632"/>
      <point x="174" y="654"/>
      <point x="204" y="658" type="curve"/>
      <point x="204" y="538" type="line"/>
      <point x="114" y="538" type="line"/>
      <point x="114" y="673" type="line"/>
      <point x="155" y="702"/>
      <point x="244" y="735"/>
      <point x="346" y="735" type="curve" smooth="yes"/>
      <point x="485" y="735"/>
      <point x="577" y="673"/>
      <point x="577" y="569" type="curve" smooth="yes"/>
      <point x="577" y="439"/>
      <point x="455" y="380"/>
      <point x="308" y="378" type="curve"/>
      <point x="420" y="405" type="line"/>
      <point x="420" y="367" type="line"/>
    </contour>
  </outline>
</glyph>
<glyph name="two.den" format="2">
  <advance width="532"/>
  <outline>
    <contour>
      <point x="312" y="63" type="line" smooth="yes"/>
      <point x="370" y="63"/>
      <point x="390" y="67"/>
      <point x="395" y="91" type="curve" smooth="yes"/>
      <point x="402" y="126" type="line"/>
      <point x="452" y="126" type="line"/>
      <point x="452" y="0" type="line"/>
      <point x="80" y="0" type="line"/>
      <point x="80" y="75" type="line"/>
      <point x="214" y="157"/>
      <point x="345" y="203"/>
      <point x="345" y="297" type="curve" smooth="yes"/>
      <point x="345" y="347"/>
      <point x="313" y="370"/>
      <point x="261" y="370" type="curve" smooth="yes"/>
      <point x="214" y="370"/>
      <point x="178" y="359"/>
      <point x="143" y="341" type="curve"/>
      <point x="150" y="354"/>
      <point x="154" y="368"/>
      <point x="171" y="370" type="curve"/>
      <point x="171" y="282" type="line"/>
      <point x="101" y="282" type="line"/>
      <point x="101" y="379" type="line"/>
      <point x="133" y="398"/>
      <point x="204" y="420"/>
      <point x="271" y="420" type="curve" smooth="yes"/>
      <point x="376" y="420"/>
      <point x="435" y="379"/>
      <point x="435" y="301" type="curve" smooth="yes"/>
      <point x="435" y="187"/>
      <point x="258" y="124"/>
      <point x="117" y="47" type="curve"/>
      <point x="114" y="52"/>
      <point x="113" y="60"/>
      <point x="116" y="63" type="curve"/>
    </contour>
  </outline>
</glyph>
<glyph name="two.linprop" format="2">
  <advance width="650"/>
  <outline>
    <contour>
      <point x="323" y="735" type="curve" smooth="yes"/>
      <point x="478" y="735"/>
      <point x="571" y="664"/>
      <point x="571" y="536" type="curve" smooth="yes"/>
      <point x="571" y="339"/>
      <point x="301" y="198"/>
      <point x="92" y="34" type="curve"/>
      <point x="82" y="49"/>
      <point x="78" y="62"/>
      <point x="88" y="68" type="curve"/>
      <point x="391" y="68" type="line" smooth="yes"/>
      <point x="478" y="68"/>
      <point x="513" y="75"/>
      <point x="516" y="109" type="curve" smooth="yes"/>
      <point x="526" y="216" type="line"/>
      <point x="593" y="216" type="line"/>
      <point x="593" y="0" type="line"/>
      <point x="59" y="0" type="line"/>
      <point x="59" y="76" type="line"/>
      <point x="288" y="267"/>
      <point x="477" y="356"/>
      <point x="477" y="529" type="curve" smooth="yes"/>
      <point x="477" y="631"/>
      <point x="412" y="671"/>
      <point x="317" y="671" type="curve" smooth="yes"/>
      <point x="236" y="671"/>
      <point x="171" y="646"/>
      <point x="137" y="608" type="curve"/>
      <point x="141" y="635"/>
      <point x="175" y="678"/>
      <point x="175" y="656" type="curve" smooth="yes"/>
      <point x="175" y="518" type="line"/>
      <point x="85" y="518" type="line"/>
      <point x="85" y="656" type="line"/>
      <point x="118" y="690"/>
      <point x="212" y="735"/>
    </contour>
  </outline>
</glyph>
<glyph name="uni20B4.proportional" format="2">
  <advance width="704"/>
  <outline>
    <contour>
      <point x="48" y="485" type="line"/>
      <point x="48" y="429" type="line"/>
      <point x="656" y="429" type="line"/>
      <point x="656" y="485" type="line"/>
    </contour>
    <contour>
      <point x="48" y="305" type="line"/>
      <point x="48" y="249" type="line"/>
      <point x="656" y="249" type="line"/>
      <point x="656" y="305" type="line"/>
    </contour>
    <contour>
      <point x="368" y="-10" type="curve" smooth="yes"/>
      <point x="483" y="-10"/>
      <point x="568" y="21"/>
      <point x="604" y="44" type="curve"/>
      <point x="604" y="155" type="line"/>
      <point x="514" y="155" type="line"/>
      <point x="514" y="39" type="line"/>
      <point x="541" y="44"/>
      <point x="565" y="100"/>
      <point x="558" y="97" type="curve"/>
      <point x="510" y="67"/>
      <point x="463" y="50"/>
      <point x="373" y="50" type="curve" smooth="yes"/>
      <point x="269" y="50"/>
      <point x="217" y="78"/>
      <point x="217" y="152" type="curve" smooth="yes"/>
      <point x="217.0" y="201.0"/>
      <point x="240" y="244"/>
      <point x="286" y="278" type="curve"/>
      <point x="192" y="273" type="line"/>
      <point x="164" y="243"/>
      <point x="128" y="211"/>
      <point x="128" y="140" type="curve" smooth="yes"/>
      <point x="128.0" y="45.0"/>
      <point x="215" y="-10"/>
    </contour>
    <contour>
      <point x="428" y="464" type="curve"/>
      <point x="507" y="449" type="line"/>
      <point x="540" y="480"/>
      <point x="588" y="517"/>
      <point x="588" y="597" type="curve" smooth="yes"/>
      <point x="588.0" y="675.0"/>
      <point x="519" y="730"/>
      <point x="369" y="730" type="curve" smooth="yes"/>
      <point x="267" y="730"/>
      <point x="189" y="700"/>
      <point x="152" y="676" type="curve"/>
      <point x="152" y="579" type="line"/>
      <point x="242" y="579" type="line"/>
      <point x="242" y="678" type="line"/>
      <point x="216" y="675"/>
      <point x="189" y="637"/>
      <point x="196" y="625" type="curve"/>
      <point x="230" y="653"/>
      <point x="280" y="670"/>
      <point x="363" y="670" type="curve" smooth="yes"/>
      <point x="471" y="670"/>
      <point x="503" y="631"/>
      <point x="503" y="582" type="curve"/>
      <point x="503" y="531"/>
      <point x="475" y="499"/>
    </contour>
  </outline>
</glyph>
<glyph name="uni20B8.proportional" format="2">
  <advance width="728"/>
  <outline>
    <contour>
      <point x="20" y="729" type="line"/>
      <point x="20" y="673" type="line"/>
      <point x="711" y="673" type="line"/>
      <point x="711" y="729" type="line"/>
    </contour>
    <contour>
      <point x="24" y="534.0" type="line"/>
      <point x="24.0" y="295.0" type="line"/>
      <point x="88.0" y="295.0" type="line"/>
      <point x="106.0" y="429.0" type="line" smooth="yes"/>
      <point x="111" y="465"/>
      <point x="140" y="482"/>
      <point x="226.0" y="482.0" type="curve" smooth="yes"/>
      <point x="320" y="482" type="line"/>
      <point x="320" y="98" type="line" smooth="yes"/>
      <point x="320" y="69"/>
      <point x="284" y="62"/>
      <point x="235" y="62" type="curve" smooth="yes"/>
      <point x="186" y="62" type="line"/>
      <point x="186" y="0" type="line"/>
      <point x="547" y="0" type="line"/>
      <point x="547" y="62" type="line"/>
      <point x="496" y="62" type="line" smooth="yes"/>
      <point x="447" y="62"/>
      <point x="411" y="69"/>
      <point x="411" y="98" type="curve" smooth="yes"/>
      <point x="411" y="482" type="line"/>
      <point x="505" y="482.0" type="line" smooth="yes"/>
      <point x="591" y="482"/>
      <point x="620" y="465"/>
      <point x="625" y="429.0" type="curve" smooth="yes"/>
      <point x="643" y="295.0" type="line"/>
      <point x="707" y="295.0" type="line"/>
      <point x="707" y="534.0" type="line"/>
    </contour>
  </outline>
</glyph>
<glyph name="whitedownpointingtriangle" format="2">
  <advance width="663"/>
  <outline>
    <contour>
      <point x="58" y="464" type="line"/>
      <point x="331" y="91" type="line"/>
      <point x="605" y="464" type="line"/>
    </contour>
    <contour>
      <point x="326" y="175" type="line"/>
      <point x="338" y="175" type="line"/>
      <point x="156" y="430" type="line"/>
      <point x="148" y="414" type="line"/>
      <point x="515" y="414" type="line"/>
      <point x="508" y="430" type="line"/>
    </contour>
  </outline>
</glyph>
<glyph name="whiterightpointingtriangle" format="2">
  <advance width="607"/>
  <outline>
    <contour>
      <point x="138" y="535" type="line"/>
      <point x="138" y="20" type="line"/>
      <point x="533" y="277" type="line"/>
    </contour>
    <contour>
      <point x="196" y="450" type="line"/>
      <point x="179" y="443" type="line"/>
      <point x="449" y="272" type="line"/>
      <point x="449" y="283" type="line"/>
      <point x="179" y="112" type="line"/>
      <point x="196" y="105" type="line"/>
    </contour>
  </outline>
</glyph>
<glyph name="yen.proportional" format="2">
  <advance width="678"/>
  <outline>
    <contour>
      <point x="62" y="386" type="line"/>
      <point x="62" y="334" type="line"/>
      <point x="623" y="334" type="line"/>
      <point x="623" y="386" type="line"/>
    </contour>
    <contour>
      <point x="62" y="214" type="line"/>
      <point x="62" y="162" type="line"/>
      <point x="623" y="162" type="line"/>
      <point x="623" y="214" type="line"/>
    </contour>
    <contour>
      <point x="300" y="379" type="line"/>
      <point x="300" y="98" type="line" smooth="yes"/>
      <point x="300.0" y="69.0"/>
      <point x="261" y="62"/>
      <point x="207" y="62" type="curve" smooth="yes"/>
      <point x="183" y="62" type="line"/>
      <point x="183" y="0" type="line"/>
      <point x="502" y="0" type="line"/>
      <point x="502" y="62" type="line"/>
      <point x="478" y="62" type="line" smooth="yes"/>
      <point x="424" y="62"/>
      <point x="385.0" y="69.0"/>
      <point x="385" y="98" type="curve" smooth="yes"/>
      <point x="385" y="379" type="line"/>
    </contour>
    <contour>
      <point x="379" y="332" type="line"/>
      <point x="568" y="604" type="line" smooth="yes"/>
      <point x="590" y="636"/>
      <point x="613" y="648"/>
      <point x="640" y="648" type="curve" smooth="yes"/>
      <point x="653" y="648" type="line"/>
      <point x="653" y="710" type="line"/>
      <point x="437" y="710" type="line"/>
      <point x="437" y="648" type="line"/>
      <point x="444" y="648" type="line" smooth="yes"/>
      <point x="475" y="648"/>
      <point x="519" y="641"/>
      <point x="519" y="628" type="curve"/>
      <point x="343" y="369" type="line"/>
      <point x="367" y="370" type="line"/>
      <point x="180" y="640" type="line"/>
      <point x="180" y="647"/>
      <point x="214" y="648"/>
      <point x="246" y="648" type="curve" smooth="yes"/>
      <point x="259" y="648" type="line"/>
      <point x="259" y="710" type="line"/>
      <point x="24" y="710" type="line"/>
      <point x="24" y="648" type="line"/>
      <point x="37" y="648" type="line" smooth="yes"/>
      <point x="67" y="648"/>
      <point x="84" y="646"/>
      <point x="105" y="617" type="curve" smooth="yes"/>
      <point x="306" y="333" type="line"/>
    </contour>
  </outline>
</glyph>
<glyph name="zero.den" format="2">
  <advance width="539"/>
  <outline>
    <contour>
      <point x="271" y="421" type="curve" smooth="yes"/>
      <point x="155" y="421"/>
      <point x="75" y="354"/>
      <point x="75" y="207" type="curve" smooth="yes"/>
      <point x="75" y="61"/>
      <point x="155" y="-6"/>
      <point x="271" y="-6" type="curve" smooth="yes"/>
      <point x="386" y="-6"/>
      <point x="464" y="61"/>
      <point x="464" y="208" type="curve" smooth="yes"/>
      <point x="464" y="354"/>
      <point x="386" y="421"/>
    </contour>
    <contour>
      <point x="271" y="47" type="curve" smooth="yes"/>
      <point x="215" y="47"/>
      <point x="170" y="75"/>
      <point x="170" y="207" type="curve" smooth="yes"/>
      <point x="170" y="337"/>
      <point x="215" y="368"/>
      <point x="271" y="368" type="curve" smooth="yes"/>
      <point x="326" y="368"/>
      <point x="372" y="339"/>
      <point x="372" y="208" type="curve" smooth="yes"/>
      <point x="372" y="77"/>
      <point x="326" y="47"/>
    </contour>
  </outline>
</glyph>
<glyph name="zero.midprop" format="2">
  <advance width="701"/>
  <outline>
    <contour>
      <point x="350" y="-11" type="curve" smooth="yes"/>
      <point x="527" y="-11"/>
      <point x="639" y="114"/>
      <point x="639" y="336" type="curve" smooth="yes"/>
      <point x="639" y="558"/>
      <point x="527" y="683"/>
      <point x="350" y="683" type="curve" smooth="yes"/>
      <point x="173" y="683"/>
      <point x="62" y="558"/>
      <point x="62" y="336" type="curve" smooth="yes"/>
      <point x="62" y="114"/>
      <point x="173" y="-11"/>
    </contour>
    <contour>
      <point x="350" y="55" type="curve" smooth="yes"/>
      <point x="221" y="55"/>
      <point x="158" y="151"/>
      <point x="158" y="336" type="curve" smooth="yes"/>
      <point x="158" y="521"/>
      <point x="221" y="617"/>
      <point x="350" y="617" type="curve" smooth="yes"/>
      <point x="480" y="617"/>
      <point x="543" y="521"/>
      <point x="543" y="336" type="curve" smooth="yes"/>
      <point x="543" y="151"/>
      <point x="480" y="55"/>
    </contour>
  </outline>
</glyph>
<glyph name="zero.propslash" format="2">
  <advance width="652"/>
  <outline>
    <contour>
      <point x="167" y="119" type="line"/>
      <point x="510" y="485" type="line"/>
      <point x="488" y="553" type="line"/>
      <point x="142" y="184" type="line"/>
    </contour>
    <contour>
      <point x="336" y="-11" type="curve" smooth="yes"/>
      <point x="503" y="-11"/>
      <point x="615" y="103"/>
      <point x="615" y="336" type="curve" smooth="yes"/>
      <point x="615" y="569"/>
      <point x="503" y="683"/>
      <point x="336" y="683" type="curve" smooth="yes"/>
      <point x="169" y="683"/>
      <point x="58" y="569"/>
      <point x="58" y="336" type="curve" smooth="yes"/>
      <point x="58" y="103"/>
      <point x="169" y="-11"/>
    </contour>
    <contour>
      <point x="336" y="50" type="curve" smooth="yes"/>
      <point x="217" y="50"/>
      <point x="154" y="139"/>
      <point x="154" y="336" type="curve" smooth="yes"/>
      <point x="154" y="533"/>
      <point x="217" y="622"/>
      <point x="336" y="622" type="curve" smooth="yes"/>
      <point x="456" y="622"/>
      <point x="519" y="533"/>
      <point x="519" y="336" type="curve" smooth="yes"/>
      <point x="519" y="139"/>
      <point x="456" y="50"/>
    </contour>
  </outline>
</glyph>
<glyph name="zero.slash" format="2">
  <advance width="594"/>
  <outline>
    <contour>
      <point x="146" y="115" type="line"/>
      <point x="472" y="464" type="line"/>
      <point x="449" y="528" type="line"/>
      <point x="122" y="176" type="line"/>
    </contour>
    <contour>
      <point x="297" y="-11" type="curve" smooth="yes"/>
      <point x="447" y="-11"/>
      <point x="540" y="97"/>
      <point x="540" y="322" type="curve"/>
      <point x="540" y="541"/>
      <point x="447" y="654"/>
      <point x="297" y="654" type="curve" smooth="yes"/>
      <point x="146" y="654"/>
      <point x="54" y="541"/>
      <point x="54" y="322" type="curve"/>
      <point x="54" y="97"/>
      <point x="146" y="-11"/>
    </contour>
    <contour>
      <point x="297" y="50" type="curve" smooth="yes"/>
      <point x="196" y="50"/>
      <point x="150" y="133"/>
      <point x="150" y="322" type="curve"/>
      <point x="150" y="505"/>
      <point x="196" y="593"/>
      <point x="297" y="593" type="curve" smooth="yes"/>
      <point x="397" y="593"/>
      <point x="444" y="505"/>
      <point x="444" y="322" type="curve"/>
      <point x="444" y="133"/>
      <point x="397" y="50"/>
    </contour>
  </outline>
</glyph>
<glyph name="zero.slashlin" format="2">
  <advance width="594"/>
  <outline>
    <contour>
      <point x="146" y="156" type="line"/>
      <point x="472" y="504" type="line"/>
      <point x="449" y="568" type="line"/>
      <point x="122" y="217" type="line"/>
    </contour>
    <contour>
      <point x="297" y="-11" type="curve" smooth="yes"/>
      <point x="453" y="-11"/>
      <point x="549" y="111"/>
      <point x="549" y="362" type="curve" smooth="yes"/>
      <point x="549" y="613"/>
      <point x="453" y="735"/>
      <point x="297" y="735" type="curve" smooth="yes"/>
      <point x="141" y="735"/>
      <point x="45" y="613"/>
      <point x="45" y="362" type="curve" smooth="yes"/>
      <point x="45" y="111"/>
      <point x="141" y="-11"/>
    </contour>
    <contour>
      <point x="297" y="50" type="curve" smooth="yes"/>
      <point x="190" y="50"/>
      <point x="141" y="146"/>
      <point x="141" y="362" type="curve" smooth="yes"/>
      <point x="141" y="578"/>
      <point x="190" y="674"/>
      <point x="297" y="674" type="curve" smooth="yes"/>
      <point x="404" y="674"/>
      <point x="453" y="578"/>
      <point x="453" y="362" type="curve" smooth="yes"/>
      <point x="453" y="146"/>
      <point x="404" y="50"/>
    </contour>
  </outline>
</glyph>
<glyph name="zero.slashold" format="2">
  <advance width="680"/>
  <outline>
    <contour>
      <point x="297" y="50" type="curve" smooth="yes"/>
      <point x="196" y="50"/>
      <point x="147" y="121"/>
      <point x="147" y="293" type="curve" smooth="yes"/>
      <point x="147" y="461"/>
      <point x="196" y="537"/>
      <point x="297" y="537" type="curve" smooth="yes"/>
      <point x="397" y="537"/>
      <point x="447" y="465"/>
      <point x="447" y="293" type="curve" smooth="yes"/>
      <point x="447" y="125"/>
      <point x="397" y="50"/>
    </contour>
    <contour>
      <point x="146" y="87" type="line"/>
      <point x="472" y="435" type="line"/>
      <point x="449" y="500" type="line"/>
      <point x="122" y="148" type="line"/>
    </contour>
    <contour>
      <point x="297" y="-11" type="curve" smooth="yes"/>
      <point x="447" y="-11"/>
      <point x="540" y="88"/>
      <point x="540" y="293" type="curve" smooth="yes"/>
      <point x="540" y="498"/>
      <point x="447" y="597"/>
      <point x="297" y="597" type="curve" smooth="yes"/>
      <point x="146" y="597"/>
      <point x="54" y="498"/>
      <point x="54" y="293" type="curve" smooth="yes"/>
      <point x="54" y="88"/>
      <point x="146" y="-11"/>
    </contour>
  </outline>
</glyph>
<glyph name="zero.slasholdprop" format="2">
  <advance width="647"/>
  <outline>
    <contour>
      <point x="336" y="50" type="curve" smooth="yes"/>
      <point x="217" y="50"/>
      <point x="154" y="134"/>
      <point x="154" y="319" type="curve" smooth="yes"/>
      <point x="154" y="504"/>
      <point x="217" y="588"/>
      <point x="336" y="588" type="curve" smooth="yes"/>
      <point x="456" y="588"/>
      <point x="519" y="504"/>
      <point x="519" y="319" type="curve" smooth="yes"/>
      <point x="519" y="134"/>
      <point x="456" y="50"/>
    </contour>
    <contour>
      <point x="164" y="104" type="line"/>
      <point x="507" y="470" type="line"/>
      <point x="485" y="534" type="line"/>
      <point x="140" y="165" type="line"/>
    </contour>
    <contour>
      <point x="336" y="-11" type="curve" smooth="yes"/>
      <point x="503" y="-11"/>
      <point x="615" y="97"/>
      <point x="615" y="319" type="curve" smooth="yes"/>
      <point x="615" y="541"/>
      <point x="503" y="649"/>
      <point x="336" y="649" type="curve" smooth="yes"/>
      <point x="169" y="649"/>
      <point x="58" y="541"/>
      <point x="58" y="319" type="curve" smooth="yes"/>
      <point x="58" y="97"/>
      <point x="169" y="-11"/>
    </contour>
  </outline>
</glyph>
